<?xml version="1.0" encoding="utf-8"?>
<!-- Generator: Adobe Illustrator 17.0.0, SVG Export Plug-In . SVG Version: 6.00 Build 0)  -->
<!DOCTYPE svg PUBLIC "-//W3C//DTD SVG 1.1//EN" "http://www.w3.org/Graphics/SVG/1.1/DTD/svg11.dtd">
<svg version="1.1" xmlns="http://www.w3.org/2000/svg" xmlns:xlink="http://www.w3.org/1999/xlink" x="0px" y="0px"
	 width="654.821px" height="664.103px" viewBox="0 0 654.821 664.103" enable-background="new 0 0 654.821 664.103"
	 xml:space="preserve">
<g id="Capa_2">
	<g>
		<g>
			<path fill="#1A1A1A" d="M742,214.75c0.967,0,0.967-1.5,0-1.5S741.033,214.75,742,214.75L742,214.75z"/>
		</g>
	</g>
	<g>
		<g>
			<path fill="#333333" d="M451,263.75c0.967,0,0.967-1.5,0-1.5S450.033,263.75,451,263.75L451,263.75z"/>
		</g>
	</g>
</g>
<g id="Capa_4">
</g>
<g id="Capa_5">
</g>
<g id="Capa_7">
	<g>
		<g>
			<path fill="#333333" d="M122.583,216c-0.094,4.904,2.128,9.021,7.515,7.002c2.025-0.759,4.013-2.47,5.212-4.245
				c1.108-1.639,0.608-1.659,2.232-0.465c1.34,0.985,3.324,1.489,4.938,1.61c3.503,0.263,6.828-0.355,10.25-1.033
				c5.15-1.021,11.444,1.032,16.564,1.701c6.386,0.835,12.865,0.743,19.173,2.153c5.3,1.184,9.856,4.422,15.333,5.333
				c0.828,0.138,1.317-0.884,0.578-1.371c-6.191-4.084-12.671-8.682-19.974-5.05c-4.734,2.355-18.464,1.973-21.09-3.348
				c-0.152-0.307-0.536-0.416-0.847-0.345c-2.569,0.592-4.673,1.602-6.898,3.018c-2.985,1.901-2.8,1.741-5.02-0.912
				c-1.995-2.385-4.471-4.121-7.652-4.032c-3.499,0.098-7.117,2.009-10.448,2.93c-3.17,0.877-7.089-3.867-9.826-1.13
				c-6.039,6.039,2.994,10.033,7.852,9.896c2.512-0.071,5.806-0.931,7.176-3.261c0.998-1.698,1.521-3.574,2.414-5.325
				c2.791-5.475,8.666-1.394,11.784,0.989c3.848,2.94,8.796,4.207,13.575,4.055c7.333-0.233,12.358-2.105,19.141,2.198
				c4.376,2.776,8.033,2.339,13.018,2.285c8.778-0.095,13.101,8.217,15.358,15.32c4.579,14.41,10.079,28.68,9.305,44.062
				c-0.542,10.77-6.542,19.519-10.22,29.348c-1.441,3.85-3.262,9.991-0.081,13.542c4.545,5.072,12.357,3.324,18.226,2.307
				c2.879-0.499,5.436-0.474,8.295,0.157c2.332,0.515,3.541,2.247,5.437,3.428c2.374,1.48,4.597,1.646,7.118,0.463
				c2.774-1.302,4.429-5.041,5.845-7.51c1.639-2.858,4.365-6.987,7.222-8.814c6.399-4.093,14.339,2.082,19.476-4.81
				c3.885-5.213,4.376-11.98,1.75-17.859c-3.158-7.068-11.742-11.247-17.178-16.325c-7.518-7.023-9.01-18.887-10.053-28.63
				c-0.102-0.951-1.603-0.961-1.5,0c1.06,9.896,2.548,21.149,9.53,28.728c8.069,8.758,22.31,13.718,18.758,28.245
				c-0.879,3.595-3.71,7.616-7.66,8.072c-2.608,0.301-5.406-0.559-8.033-0.593c-3.349-0.043-6.715,2.03-8.698,4.579
				c-2.731,3.511-4.947,7.041-7.377,10.751c-3.091,4.719-7.109,3.476-10.865,0.449c-1.466-1.182-3.259-1.762-5.115-1.989
				c-5.906-0.721-11.541,1.473-17.449,1.216c-7.33-0.319-8.706-5.977-7.176-11.977c2.257-8.848,8.045-16.41,10.224-25.282
				c3.358-13.67-0.575-28.154-4.858-41.115c-2.814-8.514-4.683-21.992-14.332-25.808c-5.617-2.222-11.683,0.046-16.981-2.789
				c-2.169-1.16-4.09-2.592-6.375-3.542c-2.584-1.074-5.96-0.654-8.649-0.373c-6.964,0.728-12.798,1.256-18.919-3.086
				c-2.749-1.95-6.583-5.254-10.32-3.469c-4.545,2.172-3.869,7.736-8,10c-2.173,1.191-5.193,1.023-7.539,0.617
				c-1.519-0.263-2.931-0.955-3.861-2.238c-2.728-3.761,3.088-4.898,5.483-3.636c3.354,1.767,7.572-0.612,10.823-1.688
				c6.19-2.048,9.264,1.064,12.825,5.971c0.218,0.3,0.676,0.532,1.026,0.269c1.87-1.407,3.734-2.74,5.781-3.88
				c3.297-1.836,2.837-0.966,4.919,0.485c3.09,2.153,6.968,2.509,10.628,2.753c2.354,0.157,6.947,0.972,9.113-0.172
				c4.291-2.267,7.433-2.604,11.927-0.652c2.899,1.259,5.579,3.066,8.208,4.8c0.193-0.457,0.385-0.914,0.578-1.371
				c-5.949-0.99-11.011-4.367-16.819-5.665c-6.306-1.409-12.939-1.159-19.326-2.048c-4.489-0.624-10.418-2.439-14.92-1.62
				c-5.664,1.03-11.982,2.759-16.604-1.807c-0.317-0.313-0.974-0.298-1.178,0.152c-2.612,5.747-11.456,10.082-11.269,0.379
				C124.102,215.032,122.602,215.034,122.583,216L122.583,216z"/>
		</g>
	</g>
	<g>
		<g>
			<path fill="#333333" d="M124.972,223.433c0.749,3.846,2.047,6.629,6.362,6.275c0.152-0.012,0.337-0.104,0.362-0.275
				c0.315-2.158,0.495-4.639-0.513-6.669c-0.582-1.172-1.077-1.656-1.707-1.96c0.374,0.18,0.885,0.132,1.271,0.026
				c2.276-0.626,3.446-3.233,4.352-5.153c0.252-0.533,1.489,3.311,1.541,3.505c0.503,1.886,1.004,3.746,1.667,5.583
				c0.106,0.293,0.514,0.389,0.685,0.09c1.445-2.533,2.401-6.079,5.487-3.865c0.096,0.069,0.283,0.074,0.379,0
				c0.608-0.468,0.493-0.351,0.885-1.135c0.498-0.996,3.548,2.079,4.07,2.468c0.167,0.125,0.414,0.024,0.513-0.135
				c0.44-0.708,3.701-5.839,4.859-4c0.287,0.456,1.461,2.824,2.151,2.852c7.726,0.323,14.344,4.345,21.566,6.622
				c5.838,1.841,12.049,1.779,17.964,3.216c7.505,1.824,12.229,8.666,15.845,14.985c6.125,10.704,9.293,23.832,8.917,36.135
				c-0.378,12.372-3.186,24.496-1.735,36.92c1.085,9.292,5.475,17.555,15.344,18.935c4.903,0.686,10.231,0.009,15.123-0.506
				c3.328-0.35,6.764-1.192,9.447-3.292c3.657-2.863,6.614-6.562,9.589-10.095c2.049-2.434,5.049-4.422,8.317-4.645
				c2.379-0.162,4.588,0.812,6.964,0.217c2.507-0.627,3.699-4.601,4.131-6.683c0.858-4.134-0.141-8.697-1.331-12.654
				c-2.534-8.425-9.154-12.524-16.051-17.317c-5.264-3.658-9.606-7.827-12.479-13.63c-3.935-7.949-3.896-17.259-3.902-25.916
				c0-0.484-0.75-0.484-0.75,0c0.009,12.348,0.752,24.974,9.662,34.408c7.365,7.798,18.452,10.866,22.437,21.586
				c1.781,4.79,2.64,10.349,1.195,15.319c-1.26,4.332-4.906,4.444-8.623,3.991c-2.398-0.292-4.107,0.438-6.192,1.519
				c-3.764,1.951-6.275,6.162-9.077,9.195c-3.863,4.181-7.636,6.484-13.338,7.248c-5.58,0.748-11.795,1.233-17.34,0.122
				c-7.821-1.566-10.899-9.506-12.18-16.489c-2.304-12.557,0.846-25.663,1.539-38.233c0.588-10.667-2.256-21.655-6.457-31.367
				c-4.29-9.92-10.712-18.978-21.82-21.122c-6.659-1.285-13.116-1.691-19.519-4.164c-3.591-1.387-7.069-2.965-10.761-4.083
				c-3.922-1.188-6.385-0.907-8.828-4.786c-0.16-0.254-0.483-0.228-0.648,0c-2.285,3.173-4.254,5.484-7.411,1.924
				c-0.08-0.09-0.25-0.142-0.365-0.096c-0.137,0.055-0.821,0.214-1.005,0.485c-0.944,1.384-2.217,0.172-3.372-0.447
				c-0.162-0.087-0.431-0.058-0.513,0.135c-0.715,1.678-2.421,7.074-3.544,3.392c-0.824-2.704-1.347-5.455-2.475-8.058
				c-0.143-0.331-0.586-0.175-0.685,0.09c-0.747,1.984-2.559,7.489-6.116,5.776c-0.366-0.176-0.785,0.284-0.454,0.589
				c2.001,1.849,2.618,3.818,2.796,6.485c-0.828,3.642-2.474,3.285-4.938-1.069c-0.247-0.802-0.435-1.618-0.565-2.447
				C125.602,222.759,124.88,222.961,124.972,223.433L124.972,223.433z"/>
		</g>
	</g>
	<g>
		<g>
			<path fill="#333333" d="M241.336,212.901c-0.78-3.467-1.555-7.754,0.921-10.754c2.771-3.358,8.634-0.432,11.477,1.102
				c0.528,0.285,1.082-0.08,1.129-0.648c0.666-8.205,3.815-13.2,12.432-12.722c5.66,0.314,11.335,2.07,17.032,1.173
				c5.804-0.914,10.081-4.578,13.925-8.808c5.938-6.535,11.17-10.937,20.358-11.891c0.686-0.071,1.095-1.014,0.379-1.398
				c-10.118-5.423-21.812,0.752-30.582,6.08c-13.208,8.024-24.713,18.514-37.658,26.926c-2.412,1.568-4.908,3-7.498,4.251
				c-2.192,1.059-3.46,2.396-3.761-0.366c-0.245-2.256-0.01-4.816,2.729-5.07c5.624-0.521,10.313,2.54,15.916-0.021
				c4.096-1.872,5.861-7.704,7.386-11.532c1.018-2.556,2.188-5.712,4.969-6.784c3.826-1.474,8.823,2.348,11.743,4.31
				c0.334,0.224,0.837,0.072,1.026-0.269c3.302-5.96,10.913-9.421,16.82-12.174c5.3-2.47,13.743-6.637,19.831-5.48
				c0.945,0.18,1.325-1.142,0.399-1.446c-5.459-1.792-14.227-5.676-20.048-2.815c-4.894,2.405-7.881,8.542-11.687,12.282
				c-13.48,13.246-37.088,9.27-45.608,28.376c-0.386,0.866,0.857,1.634,1.295,0.757c2.327-4.66,5.674-10.083,6.102-15.378
				c-0.466,0.126-0.932,0.252-1.398,0.379c7.907,11.06,18.119,4.857,26.709-1.93c12.065-9.533,25.979-23.55,42.736-17.224
				c0.907,0.342,1.295-1.108,0.399-1.446c-13.626-5.144-25.897,2.901-36.249,11.154c-8.615,6.868-22.67,22.158-32.299,8.69
				c-0.441-0.617-1.336-0.387-1.398,0.379c-0.407,5.037-3.674,10.169-5.897,14.621c0.432,0.252,0.863,0.505,1.295,0.757
				c7.955-17.839,28.252-13.991,41.517-24.721c4.951-4.004,8.316-8.965,12.628-13.517c5.273-5.565,15.613-0.85,21.504,1.084
				c0.133-0.482,0.266-0.964,0.399-1.446c-3.633-0.691-7.684,0.717-11.102,1.778c-5.641,1.752-11.104,4.22-16.251,7.105
				c-3.973,2.227-8.106,4.98-10.651,8.845c0.353-0.537-6.425-3.603-7.417-3.937c-1.748-0.588-3.645-0.621-5.364,0.042
				c-2.787,1.074-4.095,4.355-5.153,6.882c-2.316,5.526-4.166,11.864-11.156,12.401c-4.146,0.319-8.291-1.901-12.398-1.009
				c-3.899,0.847-2.851,6.654-2.426,9.314c0.063,0.397,0.564,0.633,0.923,0.524c13.813-4.198,25.559-15.746,36.937-24.149
				c10.42-7.696,28.217-22.303,41.981-14.925c0.126-0.466,0.252-0.932,0.379-1.398c-7.737,0.803-13.552,3.673-18.786,9.368
				c-5.923,6.444-11.021,11.838-20.412,11.512c-5.958-0.207-11.994-2.306-17.941-0.982c-6.266,1.395-7.666,8.423-8.107,13.851
				c0.376-0.216,0.752-0.432,1.129-0.648c-3.777-2.038-8.574-4.115-12.569-1.5c-3.996,2.616-2.886,9.047-2.032,12.846
				C240.102,214.244,241.548,213.843,241.336,212.901L241.336,212.901z"/>
		</g>
	</g>
</g>
<g id="Capa_8">
	<g>
		<g>
			<path fill="#333333" d="M258.35,230.362c12.672-3.503,13.494-18.389,23.552-24.955c6.081-3.97,14.22-4.967,21.214-6.232
				c5.721-1.035,10.531-0.341,15.752,2.183c2.864,1.385,5.578,2.789,8.658,3.629c0.467,0.127,0.665-0.596,0.199-0.723
				c-6.873-1.874-12.103-6.313-19.458-6.387c-7.022-0.07-15.048,2.105-21.627,4.437c-5.597,1.984-9.846,5.503-12.737,10.653
				c-3.876,6.904-7.498,14.39-15.752,16.672C257.685,229.767,257.883,230.491,258.35,230.362L258.35,230.362z"/>
		</g>
	</g>
	<g>
		<g>
			<path fill="#333333" d="M199.35,248.138c-5.824-1.184-9.21-7.975-14.629-10.509c-4.538-2.122-9.56-0.828-14.198,0.157
				c-4.779,1.014-9.574,2.528-13.472,5.555c-5.141,3.992-6.667,11.351-11.816,15.643c-0.191,0.159-0.116,0.472,0.076,0.589
				c3.671,2.247,7.259,5.265,11.689,5.801c5.979,0.723,11.433,0.208,17.21-1.389c9.321-2.577,18.197-7.94,22.614-16.796
				c0.215-0.431-0.432-0.811-0.648-0.379c-4.97,9.965-14.963,14.519-25.21,17.282c-5.999,1.617-13.543,1.555-19.128-1.3
				c-0.792-0.405-6.214-3.16-4.735-4.393c1.626-1.355,2.858-3.194,4.011-4.941c2.914-4.415,4.65-8.849,9.489-11.569
				c4.111-2.311,9.102-3.238,13.69-4.091c6.697-1.245,11.981,0.417,16.71,5.3c2.436,2.515,4.587,5.039,8.147,5.763
				C199.622,248.958,199.823,248.235,199.35,248.138L199.35,248.138z"/>
		</g>
	</g>
	<g>
		<g>
			<path fill="#333333" d="M198.439,247.926c-2.602-1.788-4.043-4.617-6.75-6.25c-1.018-0.614-2.412-0.778-3.558-1.007
				c-2.397-0.477-3.925-2.123-5.497-3.823c-1.187-1.283-2.438-1.653-4.134-1.722c-0.837-0.034-2.135,0.457-2.874,0.81
				c-3.009,1.44-5.737,1.691-8.776,0.703c-5.054-1.644-7.332,4.758-9.225,7.994c-2.041,3.489-6.363,3.71-9.128,6.221
				c-2.883,2.619-2.77,6.35-5.512,9.132c-0.184,0.186-0.116,0.446,0.076,0.589c4.48,3.333,8.038,6.36,13.798,6.606
				c3.015,0.129,5.923-0.745,8.772-1.599c4.334-1.3,8.573-0.615,12.985-1.069c5.288-0.544,9.92-3.739,14.227-6.587
				c3.516-2.325,6.821-5.245,6.019-9.774c-0.057-0.323-0.54-0.361-0.685-0.09c-5.798,10.803-20.173,14.437-31.472,15.286
				c-5.704,0.429-13.915,7.558-17.647,0.873c-1.002-1.794-1.552-3.87-2.448-5.726c-1.322-2.741-3.447-2.62,0.991-4.383
				c0.444-0.176,0.251-0.902-0.199-0.723c-1.419,0.564-2.6,1.11-3.84,2.038c-0.238,0.178-0.24,0.47,0,0.648
				c3.565,2.642,3.895,12.156,9.439,12.301c4.152,0.109,7.061-2.903,10.979-3.902c4.265-1.088,8.863-0.89,13.198-1.946
				c7.296-1.777,14.709-5.187,19.653-10.979c0.688-0.807,3.616-5.251,0.771,0.884c-1.134,2.445-4.005,4.096-6.154,5.517
				c-4.409,2.915-8.817,5.4-14.167,5.95c-4.136,0.425-7.767-0.19-11.849,0.959c-5.35,1.506-10.469,2.514-15.618-0.277
				c-1.443-0.782-2.741-1.89-4.036-2.888c-1.969-1.518-1.007-1.912-0.305-3.667c1.347-3.368,2.296-6.035,5.613-7.938
				c1.851-1.062,3.748-1.826,5.466-3.122c3.114-2.351,3.399-6.729,6.638-9.141c2.792-2.08,4.709,0.84,7.311,0.551
				c1.611-0.179,2.811-0.539,4.283-1.207c3.428-1.556,6.298-0.858,8.818,1.812c0.857,0.908,2.094,1.823,3.3,2.141
				c2.824,0.745,5.175,1.306,7.28,3.657c1.267,1.415,2.312,2.718,3.881,3.796C198.46,248.849,198.835,248.198,198.439,247.926
				L198.439,247.926z"/>
		</g>
	</g>
	<g>
		<g>
			<path fill="#333333" d="M200.112,250.4c-1.15-4.535-4.843-6.564-9.058-7.908c-5.99-1.91-12.857-3.069-19.056-4.011
				c-7.086-1.077-10.335,2.481-15.622,6.556c-2.159,1.664-5.622,3.167-7.199,5.431c-2.656,3.811-4.368,6.363-8.615,8.708
				c-0.423,0.234-0.045,0.882,0.379,0.648c3.929-2.169,6.316-4.283,8.385-8.26c1.393-2.677,6.373-5.064,8.759-6.904
				c3.098-2.388,5.474-5.232,9.654-5.663c5.748-0.592,11.835,1.998,17.453,2.964c5.551,0.954,12.597,2.324,14.199,8.638
				C199.507,251.068,200.231,250.869,200.112,250.4L200.112,250.4z"/>
		</g>
	</g>
	<g>
		<g>
			<path fill="#333333" d="M171.235,243.735c-4.048,3.79-1.828,10.654,2.939,12.771c5.847,2.597,7.702-6.987,5.649-10.6
				c-1.388-2.442-5.031-3.294-7.589-2.703c-2.871,0.663-3.876,2.748-4.195,5.556c-0.213,1.878-0.879,6.382,1.298,7.646
				c1.641,0.952,3.632,1.048,4.839-0.703c2.771-4.019,2.445-11.812-3.305-12.753c-5.502-0.9-7.322,8.166-6.534,11.901
				c1.012,4.797,9.239,8.035,11.319,2.21c2.135-5.98-1.195-15.522-8.025-16.697c-5.911-1.017-6.581,8.49-4.69,11.943
				c2.035,3.716,10.211,13.795,15.289,9.005c4.608-4.347,4.762-13.743-0.572-17.497c-5.853-4.12-9.335,8.268-8.89,11.838
				c0.65,5.22,9.37,7.077,11.181,1.684c2.672-7.957,0.45-16.107-8.486-17.714c-7.79-1.401-10.463,8.558-9.346,14.483
				c1.323,7.023,9.125,11.398,15.694,7.878c6.604-3.539,4.841-16.116,0.441-20.506c-1.758-1.754-5.889-3.969-8.383-2.445
				c-2.952,1.804-3.184,5.226-3.326,8.446c-0.299,6.757,2.52,15.43,10.782,14.563c5.498-0.577,6.826-7.62,6.128-12.024
				c-0.968-6.113-4.467-11.492-11.228-10.942c-6.38,0.519-8.093,7.809-7.56,13.021c0.504,4.932,5.566,14.408,11.928,11.396
				c7.585-3.591,6.957-13.882,2.134-19.397c-6.52-7.455-15.382-0.946-15.817,7.367c-0.15,2.874,3.549,3.058,5.448,2.679
				c3.522-0.703,7.38-3.581,9.465-6.45c0.25-0.345-0.315-0.778-0.589-0.454c-1.823,2.148-3.363,4.257-4.559,6.826
				c-0.113,0.243,0.017,0.575,0.324,0.564c1.185-0.041,4.812-0.567,5.31-1.571c-1.2,2.419-3.137,4.2-3.921,6.846
				c-0.086,0.291,0.28,0.629,0.551,0.423c0.982-0.744,1.693-1.364,2.385-2.385c0.215-0.318-0.202-0.7-0.513-0.513
				c0.676-0.405,2.461-1.082,2.459-2.682c-0.001-1.268-0.532-1.798-1.672-2.332c-1.365-0.639-3.383-0.485-4.791-0.254
				c-0.74,0.879-0.612,1.054,0.385,0.525c0.331-0.135,0.662-0.272,0.991-0.411c1.003-0.501,2.008-1.015,2.894-1.713
				c2.73-2.149,5.523-5.536,2.996-8.918c-1.714-2.294-5.413,0.296-6.824,1.531c-5.386,4.714,3.02,8.499,5.645,4.72
				c1.448-2.085,0.257-4.842-2.153-5.414c-3.011-0.714-6.476,2.935-7.353,5.422c-0.09,0.255,0.139,0.445,0.362,0.475
				c2.011,0.264,2.916-0.338,3.362-2.275c0.043-0.189-0.056-0.419-0.262-0.461c-3.351-0.694-7.099-0.252-8.461,3.262
				c-0.071,0.183,0.076,0.422,0.262,0.461c3.195,0.681,6.319,0.839,9.586,0.751c0.965-0.026,5.823-1.067,6.203,0.393
				c0.303,1.165,0.448,2.114,0.987,3.183c0.15,0.298,0.602,0.209,0.685-0.09c0.589-2.107,0.714-3.901,0.569-6.081
				c-0.039-0.584-0.598-2.085-0.013-2.603c1.814-1.605,1.247-4.763,1.207-6.915c-0.009-0.483-0.758-0.484-0.75,0
				c0.08,4.754,0.683,9.476,0.656,14.235c-0.021,3.7-0.614,7.68-4.754,8.84c-3.551,0.995-8.161-0.51-10.291-3.401
				c-3.098-4.204-3.781-10.919-0.543-15.102c3.513-4.538,11.322-6.525,14.483-0.634c0.229,0.426,0.876,0.048,0.648-0.379
				c-2.778-5.176-9.032-5.014-13.358-1.633c-5.977,4.671-5.58,11.953-1.877,18.126c2.763,4.606,11.09,5.475,14.753,1.661
				c2.22-2.312,1.73-7.544,1.663-10.387c-0.068-2.911-0.376-5.819-0.551-8.725c-0.036-0.599-0.851-3.22-0.79-0.915
				c0.032,1.225,0.203,4.439-1.513,4.701c-0.206,0.031-0.307,0.281-0.262,0.461c0.602,2.418,0.749,4.636,0.399,7.121
				c0.045-0.319-0.805-2.354-0.926-2.821c-0.039-0.149-0.199-0.291-0.362-0.275c-4.735,0.461-9.397,0.786-14.129,0.088
				c-2.967-0.438,6.077-5.231,4.373-2.225c0.722-1.024,1.615-1.868,2.679-2.533c2.454-1.84,3.559-0.47,3.313,4.108
				c-1.875,0.649-5.749-0.003-4.073-3.251c0.989-1.917,6.982-6.345,7.7-0.659c0.508,4.018-5.852,7.331-8.962,7.986
				c-0.479,0.101-0.269,0.8,0.199,0.723c1.268-0.272,2.546-0.383,3.834-0.336c2.242,2.47,2.259,4.29,0.051,5.459
				c-0.331,0.279,0.096,0.804,0.454,0.589c-0.066,0.039,1.315-2.835,1.496-3.092c0.812-1.153,1.512-2.278,2.138-3.542
				c0.167-0.337-0.17-0.693-0.513-0.513c-0.14,0.073-5.625,2.523-5.053,1.293c0.276-0.47,0.552-0.94,0.828-1.41
				c1.842-0.952,2.364-2.048,1.565-3.288c-1.498,1.712-3.524,2.973-5.497,4.062c-1.398,0.771-2.826,1.201-4.411,1.31
				c-4.782,0.329-2.149-5.457-1.576-6.793c1.924-4.489,6.099-6.561,10.643-4.307c7.299,3.621,8.252,15.22,1.61,19.847
				c-4.176,2.909-8.554-1.988-10.262-5.23c-1.251-2.375-1.641-5.171-1.63-7.815c0.023-5.373,3.309-9.671,8.9-9.583
				c5.66,0.089,8.127,6.54,8.633,11.239c0.485,4.503-1.17,9.836-6.313,10.375c-8.096,0.849-9.411-9.272-9.157-15.037
				c0.063-1.43,0.335-2.732,0.734-4.087c1.663-5.644,7.57-1.923,9.645-0.247c2.888,2.333,3.483,6.811,3.528,10.232
				c0.053,4.011-1.538,8.387-5.539,9.875c-3.575,1.33-7.811-0.504-10.447-2.877c-5.355-4.821-2.762-18.546,4.994-18.956
				c9.461-0.5,11.898,10.723,8.596,17.618c-1.687,3.523-7.237,1.669-8.763-0.55c-1.036-1.506-0.788-4.03-0.494-5.717
				c0.531-3.04,3.031-8.06,6.925-7.484c7.211,1.067,5.878,21.748-4.916,16.252c-4.684-2.385-8.894-7.838-8.942-13.153
				c-0.039-4.364,3.319-7.395,7.565-5.168c3.008,1.577,4.315,5.669,5.03,8.712c1.244,5.292-2.087,10.252-7.875,7.652
				c-3.16-1.419-2.609-6.371-2.05-9.007c0.764-3.603,4.274-7.887,8.097-4.564c2.207,1.918,1.824,6.036,1.117,8.507
				c-0.617,2.156-5.026,6.633-5.925-0.658c-0.16-1.298,0.031-2.669,0.164-3.961c0.853-8.294,12.447-5.201,11.3,2.588
				c-0.816,5.539-6.207,5.425-8.869,1.625c-1.897-2.708-1.941-6.377,0.546-8.705C172.119,243.934,171.587,243.405,171.235,243.735
				L171.235,243.735z"/>
		</g>
	</g>
	<g>
		<g>
			<path fill="#333333" d="M327.362,203.4c-0.95-4.558-8.425-5.539-12.059-6.254c-6.309-1.24-13.135-2.581-19.151,0.166
				c-7.395,3.378-16.426,4.556-22.042,10.922c-3.106,3.521-4.336,8.316-7.315,11.931c-1.542,1.871-3.695,3.151-5.319,4.954
				c-1.777,1.973-2.907,4.547-4.616,6.616c-0.305,0.37,0.222,0.904,0.53,0.53c2.366-2.864,3.983-6.424,6.862-8.788
				c2.895-2.377,4.601-4.706,6.341-8c2.091-3.959,4.199-7.583,7.981-10.161c3.371-2.298,7.563-3.41,11.393-4.698
				c3.191-1.073,6.14-2.609,9.286-3.785c3.546-1.325,8.542-0.099,12.166,0.426c4.049,0.587,14.188,1.39,15.22,6.341
				C326.737,204.073,327.46,203.872,327.362,203.4L327.362,203.4z"/>
		</g>
	</g>
	<g>
		<g>
			<path fill="#333333" d="M258.75,230.125c6.923,0.219,13.544,1.821,20.57,1.725c6.643-0.091,13.229-1.435,19.588-3.269
				c10.788-3.11,16.342-9.569,22.168-18.802c0.724-1.147,1.455-2.288,2.196-3.423c-0.014,0.022,1.775-3.408,1.406-1.752
				c-0.573,2.576-2.584,5.132-4.013,7.307c-4.175,6.353-10.928,11.572-17.259,15.552c-3.399,2.137-7.087,3.805-10.877,5.109
				c-3.878,1.334-7.289-0.249-10.803-1.683c-2.571-1.049-4.639-1.16-7.397-0.798c-4.025,0.529-7.648,3.424-11.826,1.184
				c-3.512-1.883-1.494-3.835,0.255-6.268c1.72-2.393,2.518-5.618,3.971-8.2c1.912-3.398,5.338-6.291,8.073-9.022
				c3.302-3.298,6.376-5.513,10.925-6.798c3.574-1.01,7.375-1.131,11.04-1.627c3.728-0.504,7.4-1.323,11.143-1.726
				c4.577-0.492,8.353,1.217,12.181,3.518c1.171,0.704,2.312,1.437,3.565,1.987c2.299,1.009,0.178,4.126-0.643,5.692
				c-2.81,5.359-8.93,8.686-13.275,12.654c-5.591,5.106-11.476,5.757-18.701,6.409c-1.953,0.176-3.753,1.102-5.444,2.014
				c-3.408,1.839-6.158,3.047-10.144,3.098c-2.331,0.03-12.326,1.016-12.196-2.63c0.017-0.484-0.733-0.482-0.75,0
				c-0.116,3.249,5.011,3.247,7.218,3.382c5.957,0.365,11.062-0.084,16.25-3.202c3.818-2.294,8.162-2.006,12.41-2.6
				c3.519-0.492,6.614-1.906,9.498-3.934c5.534-3.893,12.121-9.064,15.782-14.812c1.099-1.725,2.35-3.743,1.954-5.809
				c-0.186-0.97-5.79-3.284-6.614-3.779c-7.826-4.703-15.737-1.787-24.187-0.776c-4.192,0.502-8.319,0.967-12.322,2.386
				c-3.93,1.393-6.647,4.453-9.515,7.318c-2.845,2.842-5.661,5.687-7.641,9.207c-0.992,1.763-1.706,3.71-2.531,5.554
				c-0.966,2.162-2.758,3.836-4.125,5.75c-0.126,0.176-0.021,0.404,0.135,0.513c1.624,1.138,3.784,3.384,5.939,3.426
				c3.793,0.074,7.315-1.862,11.079-2.356c4.381-0.576,8.282,2.554,12.553,3.147c2.572,0.357,5.344-0.719,7.638-1.713
				c8.115-3.517,15.002-8.583,21.161-14.882c3.367-3.443,8.499-9.166,8.445-14.321c-0.004-0.399-0.488-0.478-0.699-0.189
				c-2.927,4.006-5.403,8.31-8.202,12.403c-4.207,6.152-9.21,9.887-16.281,12.231c-6.83,2.264-13.942,3.488-21.123,3.78
				c-7.012,0.285-13.657-1.506-20.57-1.725C258.266,229.36,258.268,230.11,258.75,230.125L258.75,230.125z"/>
		</g>
	</g>
	<g>
		<g>
			<path fill="#333333" d="M286.311,203.301c-5.861,2.855-8.695,14.244-4.567,19.552c5.129,6.595,15.236,1.718,18.469-4.391
				c3.609-6.821-2.252-14.151-9.097-14.789c-3.69-0.344-8.041-0.169-11.327,1.712c-3.095,1.772-3.327,6.533-3.538,9.615
				c-0.646,9.435,6.52,17.656,16.078,17.031c9.538-0.623,12.171-12.602,9.64-20.11c-1.164-3.451-5.081-5.106-8.231-6.158
				c-3.451-1.153-6.039,0.51-7.945,3.277c-3.073,4.46-2.576,9.899-0.61,14.629c1.177,2.83,3.871,7.099,7.395,7.369
				c8.726,0.668,8.19-12.847,5.534-17.968c-1.17-2.255-4.479-5.176-7.304-4.291c-2.486,0.779-4.769,3.82-3.705,6.603
				c2.167,5.67,6.386-4.085,5.89-6.792c-0.187-1.02-1.291-3.309-2.788-2.157c-2.409,1.854-3.65,5.657-3.944,8.578
				c-0.725,7.19,4.534,9.691,8.245,3.227c1.063-1.852,2.511-5.213,1.452-7.372c-0.893-1.82-3.04-3.168-4.876-1.409
				c-4.701,4.503-3.405,13.672,4.434,10.543c4.67-1.864,11.293-9.33,7.985-14.518c-3.628-5.69-9.037,1.148-10.193,4.616
				c-1.544,4.632,0.037,11.465,6.091,8.621c6.982-3.28,3.846-11.176-2.401-12.26c-6.597-1.144-11.924,6.191-12.551,11.998
				c-0.192,1.784,0.023,3.039,1.973,3.276c1.665,0.203,2.334-3.038,2.56-4.046c0.968-4.335-2.655-8.753-5.537-3.488
				c-1.835,3.352,0.482,12.46,5.859,9.384c6.461-3.697,2.469-12.544-2.11-15.907c-0.161-0.118-0.424-0.032-0.513,0.135
				c-1.953,3.642-0.909,8.294,1.156,11.668c0.584,0.955,4.719,5.726,6.357,4.721c2.475-1.52,1.618-5.626,1.285-8.051
				c-0.536-3.9-3.541-7.965-7.249-9.26c-0.199-0.07-0.402,0.078-0.461,0.262c-1.272,3.931-1.093,8.633,1.413,12.039
				c0.134,0.183,0.414,0.272,0.589,0.076c4.102-4.604,1.581-14.049-0.691-18.829c-0.135-0.284-0.631-0.223-0.685,0.09
				c-0.9,5.154,2.739,11.372,7.047,14.048c0.202,0.125,0.495,0.008,0.551-0.224c0.455-1.877,0.585-3.552,0.664-5.496
				c0.032-0.798,2.581,3.836,3.026,4.586c0.174,0.294,0.58,0.209,0.685-0.09c2.743-7.766-3.278-10.733-10.125-10.465
				c-7.226,0.283-10.33,6.709-9.836,13.217c0.559,7.36,8.162,12.484,14.847,13.594c5.862,0.973,8.132-3.245,8.465-8.366
				c0.319-4.906-0.743-12.602-5.323-15.486c-6.556-4.128-10.885-0.811-13.532,5.722c-1.556,3.841-2.091,17.43,5.018,16.733
				c6.728-0.66,7.792-9.471,6.612-14.772c-0.07-0.312-0.538-0.373-0.685-0.09c-2.101,4.026-2.836,8.82-2.038,13.289
				c0.059,0.329,0.535,0.354,0.685,0.09c1.953-3.426,3.72-10.688,0.082-13.876c-0.385-0.337-1.147-1.098-1.747-0.559
				c-0.605,0.544-2.116-4.173-2.398-4.866c-0.514-1.261-1.235-2.066-2.245-2.903c-0.146-0.121-0.39-0.167-0.53,0
				c-1.505,1.79-2.724,3.717-3.855,5.763c-0.463,0.837-0.968,1.888-1.326,2.774c-0.366,0.842-0.688,1.701-0.967,2.577
				c0.682,0.463,0.819,0.18,0.413-0.849c-0.031-0.352-0.502-0.536-0.699-0.189c-1.338,2.36-1.594,4.951-0.788,7.539
				c0.143,0.46,0.867,0.264,0.723-0.199c-0.558-1.597-0.623-3.219-0.194-4.865c0.323-1.578,0.392-1.631,0.208-0.16
				c-0.038,0.431,0.627,0.498,0.737,0.1c1.001-3.639,2.718-6.949,4.798-10.078c2.181-3.28,4.63,5.073,5.391,6.418
				c0.124,0.219,0.412,0.235,0.589,0.076c2.766-2.486,2.815,8.793,2.767,9.062c0.131,1.101-0.274,1.635-1.215,1.604
				c-0.144-1.835,0.199-3.797,0.529-5.574c0.579-3.125,1.553-3.397,1.405-0.03c-0.093,2.126-0.759,4.153-1.695,6.04
				c-4.652,9.38-9.028-1.075-9.581-3.429c-1.417-6.029,1.644-18.07,9.771-16.351c5.56,1.176,7.171,6.549,8.009,11.334
				c0.698,3.989,1.097,10.901-3.605,12.592c-6.664,2.396-15.365-4.572-17.417-10.446c-2.377-6.805,1.505-13.796,8.628-14.683
				c4.389-0.547,9.734,1.097,10.061,6.223c0.347,5.444-2.619-1.725-3.474-2.922c-0.229-0.32-0.65-0.183-0.699,0.189
				c-0.034,0.263-0.554,6.751-1.816,5.725c-1.22-0.992-2.096-2.375-2.942-3.679c-0.904-1.393-1.507-2.953-2.018-4.523
				c-1.583-4.862,0.553-0.201,0.806,0.624c0.877,2.86,0.807,5.966,0.65,8.924c-0.111,2.079-1.059,5.841-2.523,1.6
				c-0.8-2.317-0.604-5.081-0.124-7.428c0.503-2.458,5.15,4.074,4.857,3.628c0.864,1.316,1.356,2.84,1.736,4.353
				c0.414,1.648,0.709,8.477-2.702,6.235c-3.343-2.197-5.078-5.611-5.572-9.527c-0.018-0.466-0.037-0.933-0.055-1.399
				c1.795-2.357,3.141-2.176,4.038,0.543c0.911,1.591,1.375,3.304,1.395,5.137c0.183,4.255-2.537,5.062-8.16,2.421
				c-0.078-0.707-0.156-1.415-0.233-2.122c-0.294-2.926,1.365-3.718,4.976-2.377c0.127,1.032-0.156,2.11-0.38,3.11
				c-0.601,2.69-3.269,2.007-2.651-0.85c0.176-0.816,0.47-1.616,0.705-2.417c1.507-5.139,6.707-8.607,11.985-7.691
				c5.903,1.024,4.687,7.933,0.921,10.663c-4.476-0.686-6.298-2.59-5.466-5.713c0.117-0.697,0.275-1.384,0.476-2.061
				c0.44-1.674,1.277-3.176,2.377-4.502c2.989-3.6,7.746,0.295,7.021,4.008c-0.507,2.594-2.533,5.052-4.298,6.9
				c-2.519,2.635-10.121,5.504-9.941-1.25c0.126-0.721,0.251-1.443,0.377-2.164c0.529-2.873,2.507-3.014,5.932-0.423
				c-0.008,1.656-0.938,3.567-1.641,4.994c-0.659,1.339-1.587,2.498-2.796,3.377c-4.979,3.618-3.956-6.714-3.828-7.414
				c0.179-0.977,0.524-1.927,0.856-2.86c0.97-2.724,4.562-2.983,3.915,0.487c-0.227,1.216-0.737,2.4-1.297,3.49
				c-0.989-0.251-1.978-0.502-2.967-0.753c2.252-4.949,4.917-5.923,7.995-2.921c4.11,3.368,3.961,9.828,2.654,14.385
				c-2.296,8.003-8.977,3.821-11.731-0.729c-3.015-4.983-2.907-10.429-0.219-15.503c2.746-5.181,8.067-2.938,11.856-0.761
				c4.742,2.724,3.957,9.476,3.215,13.977c-1.912,11.598-16.428,10.268-21.852,2.517c-3.93-5.616-4.609-18.388,3.654-20.29
				c6.067-1.397,13.737-0.78,16.402,5.76c3.633,8.912-9.537,19.427-16.808,12.512c-4.855-4.617-1.593-16.566,3.784-19.185
				C287.124,203.737,286.744,203.09,286.311,203.301L286.311,203.301z"/>
		</g>
	</g>
	<g>
		<g>
			<path fill="#333333" d="M223.5,365.875c4.385-0.113,8.584,3.959,12.268,5.992c3.248,1.793,6.764,2.659,10.45,2.845
				c9.378,0.471,19.008-4.442,27.357-8.138c16.907-7.485,37.77-13.752,47.749-30.384c0.249-0.416-0.399-0.793-0.648-0.379
				c-9.839,16.398-30.791,22.735-47.48,30.115c-9.294,4.11-19.789,9.233-30.218,7.729c-4.169-0.601-7.984-2.915-11.432-5.209
				c-2.467-1.641-4.981-3.399-8.046-3.321C223.017,365.137,223.016,365.887,223.5,365.875L223.5,365.875z"/>
		</g>
	</g>
	<g>
		<g>
			<path fill="#333333" d="M266.689,355.176c-5.178-3.29-10.881-3.424-16.411-0.888c-3.484,1.598-6.187,4.877-9.344,6.99
				c-3.563,2.386-7.689,3.724-11.784,4.86c-0.465,0.129-0.268,0.853,0.199,0.723c5.143-1.426,10.104-3.278,14.349-6.608
				c3.088-2.422,5.681-4.979,9.456-6.337c4.457-1.603,9.278-0.557,13.155,1.907C266.72,356.084,267.096,355.435,266.689,355.176
				L266.689,355.176z"/>
		</g>
	</g>
	<g>
		<g>
			<path fill="#333333" d="M266.574,355.439c3.164-5.593,8.274-8.616,14.471-9.864c5.802-1.169,11.839,0.268,17.741-0.538
				c5.959-0.814,18.735-1.772,22.038-7.848c0.231-0.425-0.417-0.804-0.648-0.379c-2.146,3.948-8.535,4.907-12.538,5.811
				c-6.165,1.392-12.56,2.666-18.888,2.003c-9.042-0.948-18.204,2.269-22.824,10.436
				C265.688,355.482,266.336,355.86,266.574,355.439L266.574,355.439z"/>
		</g>
	</g>
	<g>
		<g>
			<path fill="#333333" d="M224.65,366.862c5.367,0.836,8.978,5.702,13.41,8.462c4.57,2.846,10.618,3.654,15.76,4.889
				c11.883,2.854,22.223,5.633,33.954,0.294c4.745-2.16,8.869-4.928,12.512-8.66c4.302-4.406,8.308-8.786,12.889-12.959
				c6.191-5.64,11.056-14.667,11.449-23.138c0.022-0.484-0.728-0.482-0.75,0c-0.451,9.724-6.465,18.425-13.49,24.637
				c-8.153,7.209-13.917,15.727-24.324,20.023c-12.105,4.997-23.231,1.149-35.247-1.683c-6.128-1.445-11.614-3.104-16.577-7.14
				c-2.839-2.31-5.658-4.867-9.388-5.448C224.377,366.065,224.174,366.787,224.65,366.862L224.65,366.862z"/>
		</g>
	</g>
	<g>
		<g>
			<path fill="#333333" d="M318.6,339.112c1.412-0.387,2.621-0.889,3.518-2.134c2.263-3.141,0.753,3.379,0.335,4.522
				c-1.691,4.619-4.817,8.599-7.276,12.811c-1.972,3.378-3.984,6.71-7.278,8.952c-1.776,1.208-4.156,1.558-6.056,2.601
				c-1.123,0.617-1.848,1.762-2.524,2.801c-2.475,3.804-4.587,7.059-8.335,9.806c-3.02,2.213-6.187,2.166-9.67,2.748
				c-3.062,0.512-6.067,1.267-9.105,1.895c-7.292,1.508-14.335-0.986-21.109-3.225c-2.757-0.911-5.841-0.439-8.672-0.997
				c-4.123-0.813-5.566-6.298-7.61-9.322c-2.133-3.154-6.717-4.668-10.317-4.944c-0.429-0.033-0.502,0.631-0.1,0.737
				c3.344,0.875,7.745,3.559,10.798,0.431c2.29-2.346,2.92-4.714,7.033-4.677c1.377,0.013,2.387-0.374,3.155-1.645
				c2.507-4.151,5.38-2.742,8.803-4.647c4.182-2.327,7.712-0.963,11.212,1.83c2.047,1.633,4.351-1.963,5.281-3.177
				c3.891-5.081,9.911-12.995,16.921-7.603c1.182,0.909,2.559,1.64,4.117,1.201c4.133-1.166,7.909-0.899,12.096-1.369
				c1.368-0.154,2.69-0.712,3.762-1.573c2.989-2.398,5.056-4.04,9.304-2.863c0.715,0.198,2.162-0.366,2.633-0.754
				c0.852-0.702,1.309-1.013,1.915-1.96c2.225-3.477,0.48,0.542-0.298,2.027c-2.906,5.549-1.257,12.283-6.893,16.163
				c-1.862,1.282-3.858,2.28-5.645,3.681c-2.593,2.034-4.267,5.402-6.463,7.838c-1.648,1.828-3.401,3.383-4.771,5.438
				c-3.186,4.781-6.927,5.676-12.291,5.75c-6.231,0.086-10.159,4.666-16.17,5.169c-3.201,0.268-6.386-0.618-9.358-1.687
				c-1.675-0.602-3.793-1.337-5.605-0.91c-2.544,0.601-5.9,4.321-8.134,0.785c-1.426-2.257-2.133-4.094-4.054-6.052
				c-3.736-3.807-8.11-5.613-13.232-6.524c-3.477-0.619,0.784,0.421,0.984,0.471c1.957,0.492,3.878,1.356,5.706,2.167
				c3.347,1.486,6.551,3.273,9.905,4.75c6.099,2.688,13.305,3.618,19.92,4.035c6.206,0.391,13.159-0.462,17.233-5.643
				c0.295-0.376-0.232-0.91-0.53-0.53c-6.233,7.926-18.818,5.623-27.408,4.001c-10.363-1.956-18.829-9.148-29.327-10.361
				c-0.369-0.043-0.515,0.542-0.189,0.699c1.985,0.953,4.097,1.237,6.252,1.623c4.387,0.785,8.202,3.851,11.24,6.946
				c1.511,1.539,3.038,7.973,6.32,7.07c0.866-0.238,1.338-0.651,2.054-1.166c2.314-1.664,4.68-1.791,7.347-1.09
				c2.751,0.723,5.224,1.728,8.075,2.076c6.923,0.847,10.921-4.493,17.421-5.036c4.571-0.382,9.784,0.321,12.917-3.912
				c1.989-2.687,3.925-5.115,6.225-7.541c2.333-2.46,4.043-5.49,6.463-7.838c3.603-3.496,9.249-4.346,10.521-9.874
				c0.837-3.641,0.259-6.532,2.134-10.123c1.014-1.942,1.978-3.743,2.095-5.961c0.017-0.314-0.43-0.515-0.64-0.265
				c-2.034,2.423-3.339,6.731-7.7,5.246c-1.162-0.396-2.289-0.553-3.46,0.013c-2.247,1.084-3.867,2.837-5.941,4.201
				c-3.45,2.269-7.874-0.002-11.483,1.194c-5.523,1.831-9.146-3.311-14.825-1.512c-3.908,1.238-6.709,5.214-9.081,8.295
				c-0.83,1.078-3.299,5.159-5.46,3.434c-0.841-0.671-1.549-1.523-2.389-2.21c-1.214-0.994-2.717-1.349-4.228-1.493
				c-1.913-0.183-4.492,2.152-6.121,2.648c-1.948,0.593-4.894,0.663-6.311,2.434c-2.655,3.318-6.783,2.228-9.309,5.589
				c-3.321,4.419-6.129,4.184-10.968,2.42c3.855,1.405,7.405,3.356,9.532,7.073c2.195,3.836,3.475,6.904,8.137,7.823
				c2.959,0.583,5.797,0.233,8.75,1.209c2.437,0.805,4.675,2.316,7.316,2.448c3.168,0.158,6.282,0.762,9.452,0.801
				c2.527,0.031,5.324-0.943,7.771-1.506c5.631-1.296,11.104-0.774,15.753-4.685c2.002-1.684,3.707-3.512,5.253-5.615
				c1.672-2.273,2.366-4.97,4.995-6.414c2.178-1.196,4.461-1.607,6.554-3.031c2.03-1.381,3.439-3.74,4.732-5.767
				c2.365-3.71,4.739-7.466,6.898-11.299c1.522-2.702,3.943-6.939,3.059-10.186c-0.239-0.879-0.185-0.727-0.584-1.536
				c-0.126-0.254-0.517-0.234-0.648,0c-0.863,1.924-2.372,3.283-4.526,4.078C317.934,338.516,318.132,339.24,318.6,339.112
				L318.6,339.112z"/>
		</g>
	</g>
	<g>
		<g>
			<path fill="#333333" d="M233.5,369.125c2.521,0.135,4.374,1.748,6.561,2.699c1.305,0.567,2.941,0.64,4.346,0.801
				c3.49,0.4,6.333-0.245,9.366-1.903c2.825-1.544,5.196-2.144,8.41-1.079c0.863,0.286,2.394,0.571,3.258,0.181
				c1.298-0.587,1.894-1.019,2.794-2.165c2.087-2.655,5.092-2.929,8.16-3.36c4.717-0.663,9.421-2.353,14.063-3.498
				c4.356-1.074,7.238-5.289,11.426-6.816c2.72-0.992,5.66-1.504,7.883-3.47c3.02-2.67,2.053-5.991,6.835-6.904
				c0.475-0.091,0.273-0.813-0.199-0.723c-1.909,0.364-3.718,0.642-4.568,2.547c-1.985,4.452-4.319,5.954-8.971,7.441
				c-3.812,1.218-6.455,3.634-9.726,5.837c-2.406,1.621-5.161,1.875-7.92,2.322c-2.612,0.423-4.926,1.838-7.556,2.333
				c-3.322,0.626-6.674,0.517-9.299,2.913c-2.151,1.964-4.034,3.282-7.335,2.188c-1.489-0.493-2.716-0.342-4.206-0.017
				c-1.193,0.26-2.386,1.044-3.426,1.621c-2.951,1.637-5.679,1.988-8.987,1.801c-4.154-0.235-6.946-3.288-10.906-3.5
				C233.016,368.349,233.019,369.099,233.5,369.125L233.5,369.125z"/>
		</g>
	</g>
	<g>
		<g>
			<path fill="#333333" d="M294.958,406.667c0.022,1.034,0.394,1.859,1.11,2.599c0.196,0.202,0.555,0.105,0.627-0.165
				c0.272-1.023,0.96-2.034,1.013-3.1c0.013-0.268-0.335-0.49-0.564-0.324c-0.357,0.259-0.683,0.549-0.84,0.974
				c-0.14,0.376-0.132,0.793-0.294,1.16c-0.193,0.438,0.453,0.82,0.648,0.379c0.304-0.689,0.191-1.377,0.865-1.865
				c-0.188-0.108-0.376-0.216-0.564-0.324c-0.021,0.426-0.233,0.842-0.395,1.23c-0.228,0.548-0.439,1.096-0.592,1.67
				c0.209-0.055,0.418-0.11,0.627-0.165c-0.579-0.598-0.872-1.23-0.89-2.068C295.698,406.184,294.948,406.183,294.958,406.667
				L294.958,406.667z"/>
		</g>
	</g>
	<g>
		<g>
			<path fill="#333333" d="M294.362,331.234c-0.304-1.031,0.32-1.938,0.27-2.956c-0.062-1.265-1.71-1.308-2.632-1.32
				c-0.169-0.002-0.315,0.116-0.362,0.275c-0.28,0.949-0.331,2.166,0.35,2.975c0.366,0.435,0.989,0.457,1.053-0.209
				c0.046-0.481-0.704-0.477-0.75,0c0.117-0.062,0.234-0.124,0.351-0.187c-0.053-0.045-0.098-0.098-0.135-0.158
				c-0.098-0.14-0.156-0.301-0.21-0.46c-0.197-0.577-0.104-1.193,0.064-1.762c-0.121,0.092-0.241,0.184-0.362,0.275
				c0.539,0.007,1.322-0.047,1.764,0.333c0.236,0.203,0.096,0.647,0.04,0.896c-0.191,0.841-0.418,1.639-0.166,2.495
				C293.775,331.896,294.499,331.699,294.362,331.234L294.362,331.234z"/>
		</g>
	</g>
	<g>
		<g>
			<path fill="#333333" d="M292.375,329.5c-0.017,0.145-0.433,0.318-0.498,0.514c-0.122,0.366,0.167,0.617,0.433,0.81
				c0.153,0.111,0.435,0.04,0.513-0.135c0.218-0.486,0.283-1.017,0.5-1.5c0.166-0.37-0.27-0.777-0.589-0.454
				C292.499,328.974,292.379,329.159,292.375,329.5c0.25,0,0.5,0,0.75,0c0-0.5,0-1,0-1.5c0-0.455-0.583-0.469-0.737-0.1
				c-0.272,0.653-0.56,1.517-0.118,2.164c0.474,0.696,1.5,0.644,2.23,0.561c0.475-0.054,0.48-0.805,0-0.75
				c-0.478,0.055-1.216,0.174-1.596-0.211c-0.35-0.355,0.062-1.214,0.208-1.565c-0.246-0.033-0.491-0.066-0.737-0.1
				C292.375,328.5,292.375,329,292.375,329.5c0,0.484,0.745,0.483,0.75,0c0.002-0.149,0.024-0.118,0.14-0.235
				c-0.196-0.151-0.393-0.303-0.589-0.454c-0.218,0.486-0.283,1.017-0.5,1.5c0.171-0.045,0.342-0.09,0.513-0.135
				c-0.279-0.202-0.087,0.096-0.067,0.081c0.09-0.066,0.179-0.133,0.262-0.209c0.161-0.146,0.216-0.341,0.24-0.548
				C293.182,329.02,292.431,329.026,292.375,329.5L292.375,329.5z"/>
		</g>
	</g>
	<g>
		<g>
			<path fill="#333333" d="M186,429.375c0.484,0,0.484-0.75,0-0.75S185.516,429.375,186,429.375L186,429.375z"/>
		</g>
	</g>
</g>
<g id="Capa_9">
	<g>
		<g>
			<path fill="#333333" d="M209.638,415.9c-4.322,20.869,5.595,45.992,22.33,58.807c10.274,7.868,20.984,14.334,28.118,25.474
				c6.739,10.522,11.329,22.24,19.525,31.82c7.22,8.438,18.219,12.777,25.713,21.054c7.076,7.816,8.3,17.055,10.913,26.755
				c1.487,5.519,3.73,14.45,9.982,16.43c4.724,1.496,7.885-5.261,9.207-8.518c6.797-16.747,4.857-38.701,21.757-49.615
				c8.358-5.398,19.226-5.672,28.752-7.241c11.147-1.835,21.286-5.959,30.363-12.714c10.01-7.449,18.084-17.328,25.713-27.098
				c7.2-9.221,13.752-19.263,23.489-26.049c3.774-2.63,8.033-4.459,12.34-6.013c2.305-0.831,4.654-1.54,7-2.245
				c1.314-0.395,2.633-0.773,3.952-1.153c1.486-0.429,4.289-2.129,1.221-0.087c-10.084,6.709-18.861,15.422-26.223,25.004
				c-8.041,10.466-13.954,22.548-22.981,32.223c-7.913,8.481-18.012,14.353-28.467,19.131c-10.894,4.979-22.344,8.648-33.179,13.756
				c-9.769,4.605-17.794,11.989-23.205,21.359c-2.847,4.93-4.124,10.674-5.846,16.046c-2.447,7.634-7.156,13.893-13.718,18.483
				c-11.544,8.075-24.653,2.793-34.458-5.211c-17.845-14.568-28.634-35.998-45.173-51.913
				c-10.303-9.914-22.332-19.702-29.971-31.942c-5.112-8.19-8.75-17.329-12.673-26.119c-6.938-15.545-15.044-37.331-31.93-44.648
				c-32.196-13.95-50.642,35.159-62.297,56.017c-4.831,8.646-10.399,15.514-19.074,20.744c-10.772,6.494-23.244,7.105-35.323,9.001
				c-7.752,1.217-14.85,4.141-20.124,10.084c-6.063,6.831-8.993,16.285-11.922,24.742c-5.526,15.954-11.513,39.081,0.571,53.658
				c7.622,9.194,22.858,15.789,33.948,8.803c9.886-6.228,13.308-20.173,15.405-30.8c2.993-15.162,3.461-30.818,3.486-46.229
				c0.023-13.735-0.258-27.536-0.798-41.26c-0.595-15.121,0.756-29.075,12.167-40.162c10.297-10.004,24.793-10.478,36.583-2.951
				c36.701,23.433,24.343,74.398,30.492,110.462c2.971,17.425,11.612,31.508,27.271,40.119c9.196,5.057,19.576,6.616,27.104-1.847
				c6.603-7.424,9.116-17.576,14.807-25.621c8.947-12.648,23.4-5.818,33.132,2.406c17.755,15.003,33.842,33.967,55.992,42.636
				c19.071,7.464,32.24-7.802,41.174-22.805c4.826-8.104,8.937-16.655,13.361-24.981c4.339-8.166,6.779-17.368,10.205-25.93
				c3.147-7.867,8.38-21.809,18.551-22.044c9.34-0.215,19.012,7.862,26.047,13.124c16.724,12.511,33.132,26.772,52.026,35.909
				c12.241,5.919,27.422,7.137,36.339-4.836c8.025-10.776,9.809-25.376,11.673-38.29c1.946-13.481,2.704-28.436,9.066-40.749
				c2.626-5.083,6.764-8.991,12.457-10.2c10.248-2.176,21.246,6.173,28.715,12.174c19.122,15.364,20.066,42.754,19.928,65.45
				c-0.071,11.657,0.406,24.248-5.103,34.844c-4.375,8.415-11.906,14.739-16.571,23.026c-3.643,6.472-5.568,17.371-2.502,24.41
				c2.555,5.865,8.627,7.24,14.102,4.459c6.646-3.376,10.822-11.45,13.865-17.85c2.887-6.072,5.601-12.939,6.375-19.668
				c1.406-12.23-3.753-23.672-8.99-34.396c-5.094-10.431-9.665-20.823-13.188-31.889c-3.383-10.627-7.896-30.827-23.174-26.528
				c-3.909,1.1-7.569,3.563-10.727,6.029c-5.368,4.19-10.55,8.542-15.314,13.417c-7.538,7.714-13.526,16.737-18.246,26.406
				c-4.678,9.584-7.962,19.802-11.172,29.947c-1.545,4.882-4.249,10.431-4.879,15.493c-0.492,3.95,2.098,7.958-0.89,11.735
				c-1.795,2.268-4.953,2.982-7.645,3.475c-18.62,3.415-36.442-6.583-44.348-23.318c-7.627-16.146-6.401-35.709-3.25-52.781
				c3.336-18.074,9.815-35.766,18.687-51.847c3.689-6.687,7.943-13.131,13.035-18.837c3.516-3.939,7.876-7.778,13.051-9.218
				c5.591-1.555,11.269,2.797,15.648,5.651c10.158,6.622,20.845,12.072,31.273,18.214c9.291,5.472,16.275,12.76,22.827,21.204
				c11.334,14.607,23.624,29.106,31.489,45.983c3.592,7.706,6.148,16.749-1.599,22.731c-7.406,5.719-18.557,6.808-27.528,7.555
				c-8.621,0.717-17.692,0.935-26.257-0.455c-8.345-1.355-16.703-5.911-25.286-5.175c-7.995,0.685-12.127,9.099-14.747,15.609
				c-4.432,11.015-5.962,23.32-6.179,35.114c-0.098,5.336,0.286,10.673,1.074,15.949c0.158,1.055,1.957,7.015,0.375,6.659
				c-4.076-0.916-8.102-2.049-12.106-3.239c-14.463-4.3-28.426-10.157-42.455-15.665c-14.199-5.574-28.498-10.32-43.251-14.196
				c-14.84-3.898-29.915-6.824-44.686-10.998c-13.873-3.92-27.964-7.619-42.461-7.871c-13.519-0.234-24.949,4.444-36.73,10.498
				c-8.135,4.18-15.922,8.075-25.121,4.964c-5.428-1.836-10.32-5.383-14.915-8.705c-6.289-4.547-12.144-9.569-17.475-15.206
				c-17.6-18.609-26.612-43.236-38.226-65.608c-10.169-19.589-21.442-42.396-42.416-52.339
				c-23.925-11.342-51.644,5.716-70.089,20.231c-13.239,10.418-18.659,24.946-12.265,40.923
				c5.587,13.962,17.453,25.455,29.158,34.435c12.125,9.302,25.824,17.569,40.583,21.89c0.465,0.136,0.663-0.588,0.199-0.723
				c-17.545-5.138-33.936-15.748-47.553-27.742c-12.946-11.403-27.292-28.38-24.121-46.943c1.747-10.228,9.568-17.992,17.764-23.63
				c12.306-8.465,24.92-16.886,39.692-20.265c30.51-6.978,49.954,20.352,62.642,43.601c11.718,21.472,20.468,44.835,34.553,64.934
				c7.101,10.133,15.908,18.589,25.746,26.03c7.04,5.325,15.339,11.356,24.59,11.18c7.895-0.15,15.599-5.36,22.378-8.81
				c15.305-7.789,30.674-9.209,47.488-6.464c14.913,2.435,29.344,7.383,44.022,10.876c14.969,3.562,30.03,6.818,44.73,11.408
				c27.624,8.625,53.518,22.179,81.871,28.547c0.274,0.061,0.542-0.176,0.461-0.461c-3.485-12.416-3.276-25.757-1.528-38.439
				c1.49-10.81,4.457-26.806,14.324-33.216c7.562-4.912,19.479,1.342,27.225,3.074c7.936,1.774,16.332,1.601,24.409,1.26
				c8.968-0.378,18.223-1.454,26.625-4.762c5.048-1.987,10.826-5.826,11.366-11.763c0.637-7.015-2.865-14.005-6.051-20.022
				c-4.647-8.775-10.514-16.914-16.45-24.849c-10.721-14.334-21.099-29.148-36.791-38.39c-10.487-6.176-21.184-11.704-31.403-18.366
				c-7.414-4.833-13.5-7.137-21.31-1.867c-12.631,8.522-20.646,24.805-26.679,38.252c-7.25,16.159-12.229,33.529-14.086,51.157
				c-1.635,15.52-0.551,32.385,7.621,46.07c8.351,13.985,23.257,19.903,39.057,19.272c7.868-0.314,14.857-3.611,12.856-12.411
				c-1.276-5.611,2.969-13.763,4.68-19.194c1.768-5.611,3.598-11.202,5.623-16.727c8.343-22.759,23.171-44.042,44.508-56.428
				c20.294-11.781,25.32,19.443,29.884,32.414c7.568,21.513,24.651,41.654,17.429,65.494c-2.638,8.707-6.598,17.602-12.624,24.506
				c-2.676,3.065-6.164,5.614-10.345,5.809c-7.458,0.347-9.169-7.553-9.209-13.375c-0.082-11.818,5.94-20.297,13.177-29.006
				c5.784-6.961,10.248-14.379,11.3-23.559c1.3-11.338,1.193-23.098,0.71-34.483c-0.488-11.52-2.004-23.176-5.999-34.042
				c-3.22-8.76-8.651-15.085-16.041-20.659c-6.723-5.071-15.735-11.538-24.64-11.026c-10.925,0.628-16.177,10.157-19.03,19.577
				c-4.203,13.88-4.864,28.688-7.411,42.91c-2.22,12.399-5.731,27.97-18.005,34.211c-9.242,4.7-19.833,1.346-28.548-2.868
				c-11.1-5.368-20.842-13.231-30.816-20.372c-7.072-5.063-13.889-10.416-20.856-15.628c-6.933-5.186-14.848-11.03-23.633-12.356
				c-6.837-1.032-11.364,4.209-14.734,9.444c-5.297,8.228-8.272,17.974-11.624,27.09c-3.194,8.685-7.533,16.627-11.762,24.832
				c-4.799,9.31-9.853,18.683-16.97,26.455c-7.74,8.452-17.49,11.956-28.541,8.292c-12.521-4.151-23.377-13.162-33.215-21.632
				c-8.598-7.401-16.447-16.277-25.664-22.904c-5.296-3.807-11.164-7.49-17.779-8.26c-9.499-1.106-14.98,7.415-18.787,14.75
				c-4.375,8.429-8.245,20.44-18.203,23.714c-6.54,2.151-13.727-1.016-19.371-4.12c-8.639-4.75-15.5-11.543-20.062-20.29
				c-8.861-16.992-7.95-37.868-8.473-56.474c-0.515-18.34-1.585-37.433-10.57-53.874c-8.495-15.543-27.595-31.174-46.047-22.55
				c-10.179,4.758-17.472,14.054-20.281,24.854c-2.853,10.969-1.069,22.822-0.983,33.997c0.218,28.297,2.753,57.894-5.441,85.397
				c-3.451,11.583-10.581,24.093-24.38,23.003c-9.63-0.761-18.936-6.891-23.721-15.137c-5.574-9.605-4.59-21.907-2.582-32.355
				c2.06-10.718,5.754-21.566,10.316-31.464c4.03-8.743,10.018-15.237,19.322-18.21c10.694-3.418,22.222-2.867,32.98-6.446
				c9.061-3.013,17.696-8.91,23.251-16.729c9.567-13.467,15.586-29.265,24.651-43.096c9.283-14.165,23.526-29.063,41.784-21.062
				c8.953,3.923,14.855,12.167,19.731,20.308c5.474,9.141,9.68,19.017,14.008,28.731c3.525,7.912,6.802,17.013,12.185,23.902
				c9.222,11.799,20.387,21.791,31.113,32.174c16.26,15.74,26.541,36.881,44.549,50.98c6.821,5.341,15.605,9.194,24.373,7.633
				c10.103-1.799,18.389-10.983,22.087-20.072c2.507-6.161,3.675-12.659,6.748-18.622c3.181-6.172,8.544-11.777,14.076-15.92
				c9.632-7.213,22.064-10.657,33.1-15.118c9.954-4.025,19.71-8.547,28.393-14.934c9.225-6.786,15.623-15.629,21.644-25.211
				c10.367-16.498,22.864-31.241,39.371-41.85c0.351-0.226,0.131-0.805-0.289-0.685c-9.212,2.63-18.705,4.992-26.9,10.137
				c-8.647,5.429-14.753,13.975-20.838,21.961c-8.149,10.695-16.569,21.287-26.932,29.942c-9.783,8.17-21.254,12.615-33.712,14.666
				c-9.099,1.498-18.49,2.071-26.752,6.547c-7.33,3.972-12.854,11.859-14.974,19.813c-2.134,8.006-3.436,16.199-5.766,24.162
				c-1.817,6.211-7.446,21.482-15.035,11.081c-3.985-5.461-5.335-13.114-6.809-19.573c-1.501-6.581-3.371-12.414-7.684-17.849
				c-5.096-6.421-11.841-10.786-18.428-15.511c-9.482-6.801-15.247-15.579-20.743-25.706c-4.374-8.059-8.48-16.288-14.955-22.898
				c-6.521-6.657-14.734-11.403-22.018-17.135c-15.864-12.484-25.11-37.291-20.992-57.177
				C210.459,415.628,209.736,415.427,209.638,415.9L209.638,415.9z"/>
		</g>
	</g>
</g>
<g id="Capa_10">
	<g>
		<g>
			<path fill="#333333" d="M389.362,205.9c-0.97-4.662-0.85-11.4,5.513-11.15c5.323,0.209,9.077,5.754,10.496,10.267
				c2.533,8.056-0.33,15.346-4.323,22.312c-0.804,1.402-1.676,2.768-2.531,4.139c-0.147,0.236-0.738-4.165-0.734-4.483
				c0.046-3.733,1.368-7.438,2.558-10.928c2.205-6.465,6.517-19.455-1.276-24.354c-5.907-3.714-9.966,3.601-11.07,8.461
				c-0.072,0.443-0.143,0.886-0.215,1.329c-0.068,0.251,0.117,0.307,0.553,0.169c-0.048-1.511,0.195-3.011,0.531-4.477
				c0.553-2.415,2.038-4.442,4.188-5.643c4.994-2.79,10.126,2.244,12.201,6.279c2.865,5.574,1.834,12.233,0.494,18.047
				c-0.646,2.803-1.568,5.54-2.552,8.238c-0.587,1.609-1.276,3.178-1.988,4.734c-0.424,0.928-0.942,3.471-0.88,0.987
				c0.24-9.607,9.598-19.211,5.423-29.034c-2.062-4.85-7.353-8.353-11.954-4.327c-1.143,1-3.834,5.943-3.2,7.061
				c-3.323-5.857-0.535-15.406,7.54-11.627c7.447,3.485,7.743,13.432,6.049,20.169c-1.565,6.226-4.871,11.932-7.509,17.741
				c-0.198,0.437,0.448,0.818,0.648,0.379c4.74-10.439,15.387-28.312,2.916-37.758c-3.088-2.339-6.757-3.054-9.872-0.396
				c-3.912,3.338-1.749,9.529,0.308,13.154c0.199,0.35,0.663,0.16,0.699-0.189c0.463-4.49,2.385-10.527,8.097-9.458
				c4.859,0.91,6.481,6.993,6.421,11.117c-0.129,8.823-6.9,16.417-6.268,25.341c0.025,0.353,0.508,0.536,0.699,0.189
				c5.811-10.543,11.913-27.529,3.355-38.18c-2.293-2.854-6.745-4.94-10.342-3.4c-4.913,2.103-5.865,7.564-5.712,12.391
				c0.016,0.492,0.702,0.473,0.75,0c0.45-4.473,2.196-11.377,7.799-11.577c6.476-0.231,6.768,11.127,6.195,15.061
				c-1.356,9.311-6.777,16.865-4.73,26.615c0.07,0.333,0.523,0.349,0.685,0.09c6.332-10.11,15.004-27.223,2.387-36.687
				c-2.826-2.12-6.457-3.475-9.762-1.611c-3.754,2.118-3.023,7.785-2.31,11.209C388.737,206.573,389.46,206.372,389.362,205.9
				L389.362,205.9z"/>
		</g>
	</g>
	<g>
		<g>
			<path fill="#333333" d="M390.638,250.9c-1.263,6.799,2.105,13.437,9.917,12.093c9.585-1.649,14.444-10.895,13.82-19.993
				c-0.034-0.492-0.692-0.472-0.75,0c-0.531,4.304-1.991,8.362-4.3,12.033c-1.318,2.095-3.154,3.864-5.47,4.785
				c-3.95,1.572-7.433-2.261-9.531-5.007c-0.289-0.379-0.941-0.006-0.648,0.379c3.07,4.018,8.041,7.978,12.881,4.004
				c2.497-2.05,4.321-4.793,5.552-7.771c0.715-1.73,1.291-3.467,1.743-5.283c0.678-2.719-0.093-2.551-0.152,0.033
				c-0.167,7.277-5.008,13.898-12.05,15.842c-7.588,2.094-11.568-4.027-10.289-10.914
				C391.449,250.627,390.727,250.425,390.638,250.9L390.638,250.9z"/>
		</g>
	</g>
</g>
</svg>
